<svg xmlns="http://www.w3.org/2000/svg" viewBox="0 0 349.44 85.4"><defs><style>.cls-1{fill:#201d1e;}.cls-2{fill:#500000;}.cls-3{fill:#fff;}.cls-4{fill:#b4b5b7;}</style></defs><title>GERG-RGB</title><g id="Lockup_-_Standard" data-name="Lockup - Standard"><path class="cls-1" d="M91.39,40.09h4.46v6.39a13.9,13.9,0,0,1-2.12.5,16.65,16.65,0,0,1-2.5.17,6.07,6.07,0,0,1-4.64-1.77,7,7,0,0,1-1.66-5,7.49,7.49,0,0,1,.82-3.59,5.54,5.54,0,0,1,2.37-2.35,7.67,7.67,0,0,1,3.62-.81,9.78,9.78,0,0,1,3.91.77l-.59,1.34A8.82,8.82,0,0,0,91.64,35a4.92,4.92,0,0,0-3.75,1.43,5.57,5.57,0,0,0-1.34,4,5.65,5.65,0,0,0,1.3,4,5,5,0,0,0,3.81,1.37,11.25,11.25,0,0,0,2.66-.31v-4H91.39Z"/><path class="cls-1" d="M102.6,47.15a4.5,4.5,0,0,1-3.44-1.33,5.13,5.13,0,0,1-1.26-3.69,5.73,5.73,0,0,1,1.17-3.78,3.9,3.9,0,0,1,3.15-1.4,3.73,3.73,0,0,1,2.93,1.22,4.7,4.7,0,0,1,1.07,3.21v.94H99.44a3.91,3.91,0,0,0,.88,2.63,3,3,0,0,0,2.34.9,7.78,7.78,0,0,0,3.14-.67v1.33a8.07,8.07,0,0,1-1.49.49A8.35,8.35,0,0,1,102.6,47.15Zm-.4-8.95a2.45,2.45,0,0,0-1.89.77,3.56,3.56,0,0,0-.83,2.14h5.14A3.27,3.27,0,0,0,104,39,2.22,2.22,0,0,0,102.2,38.2Z"/><path class="cls-1" d="M116.93,42a5.42,5.42,0,0,1-1.22,3.76,4.25,4.25,0,0,1-3.34,1.35,4.48,4.48,0,0,1-2.35-.62,4,4,0,0,1-1.58-1.78,6.18,6.18,0,0,1-.56-2.71,5.45,5.45,0,0,1,1.21-3.75A4.26,4.26,0,0,1,112.43,37a4.17,4.17,0,0,1,3.28,1.37A5.43,5.43,0,0,1,116.93,42Zm-7.5,0a4.71,4.71,0,0,0,.75,2.88,2.66,2.66,0,0,0,2.22,1,2.6,2.6,0,0,0,2.22-1,4.64,4.64,0,0,0,.76-2.88,4.55,4.55,0,0,0-.76-2.85,2.65,2.65,0,0,0-2.24-1,2.61,2.61,0,0,0-2.2,1A4.59,4.59,0,0,0,109.43,42Z"/><path class="cls-1" d="M123.14,47.15a4.23,4.23,0,0,1-3.31-1.31,5.43,5.43,0,0,1-1.17-3.73,5.59,5.59,0,0,1,1.19-3.81A4.27,4.27,0,0,1,123.24,37a6.85,6.85,0,0,1,1.42.15,5.56,5.56,0,0,1,1.11.36l-.45,1.27a7.62,7.62,0,0,0-1.08-.33,4.61,4.61,0,0,0-1-.13q-3,0-3,3.83a4.55,4.55,0,0,0,.73,2.78,2.54,2.54,0,0,0,2.17,1,6.67,6.67,0,0,0,2.52-.53v1.32A5.41,5.41,0,0,1,123.14,47.15Z"/><path class="cls-1" d="M134.37,47V40.61a2.58,2.58,0,0,0-.55-1.8,2.23,2.23,0,0,0-1.72-.59,2.8,2.8,0,0,0-2.26.84,4.26,4.26,0,0,0-.72,2.77V47h-1.49V33h1.49v4.23a9,9,0,0,1-.07,1.27h.09a3,3,0,0,1,1.25-1.12,4,4,0,0,1,1.86-.41,3.79,3.79,0,0,1,2.71.86,3.61,3.61,0,0,1,.9,2.72V47Z"/><path class="cls-1" d="M142.75,47.15a4.51,4.51,0,0,1-3.45-1.33A5.13,5.13,0,0,1,138,42.13a5.73,5.73,0,0,1,1.17-3.78,3.9,3.9,0,0,1,3.15-1.4,3.73,3.73,0,0,1,2.93,1.22,4.65,4.65,0,0,1,1.07,3.21v.94h-6.77a3.91,3.91,0,0,0,.87,2.63,3,3,0,0,0,2.34.9,7.78,7.78,0,0,0,3.14-.67v1.33a7.61,7.61,0,0,1-1.49.49A8.32,8.32,0,0,1,142.75,47.15Zm-.41-8.95a2.45,2.45,0,0,0-1.89.77,3.62,3.62,0,0,0-.83,2.14h5.15a3.27,3.27,0,0,0-.63-2.16A2.22,2.22,0,0,0,142.34,38.2Z"/><path class="cls-1" d="M161.12,47v-6.4a2.73,2.73,0,0,0-.5-1.77,2,2,0,0,0-1.57-.58A2.49,2.49,0,0,0,157,39a3.8,3.8,0,0,0-.67,2.46V47h-1.49v-6.4a2.67,2.67,0,0,0-.5-1.77,2,2,0,0,0-1.57-.58,2.43,2.43,0,0,0-2.05.84,4.49,4.49,0,0,0-.65,2.75V47h-1.49V37.13h1.21l.24,1.35h.07a3,3,0,0,1,1.19-1.13A3.63,3.63,0,0,1,153,37a2.93,2.93,0,0,1,3,1.67h.07a3.18,3.18,0,0,1,1.27-1.22,4,4,0,0,1,1.91-.45,3.34,3.34,0,0,1,2.5.86,3.84,3.84,0,0,1,.83,2.74V47Z"/><path class="cls-1" d="M165.22,34.46a1,1,0,0,1,.26-.75.84.84,0,0,1,.62-.23.88.88,0,0,1,.62.24,1.2,1.2,0,0,1,0,1.49.84.84,0,0,1-.62.25.81.81,0,0,1-.62-.25A1,1,0,0,1,165.22,34.46ZM166.84,47h-1.49V37.13h1.49Z"/><path class="cls-1" d="M173.6,47.15a4.24,4.24,0,0,1-3.31-1.31,5.43,5.43,0,0,1-1.17-3.73,5.59,5.59,0,0,1,1.19-3.81A4.28,4.28,0,0,1,173.7,37a6.78,6.78,0,0,1,1.42.15,5.56,5.56,0,0,1,1.11.36l-.45,1.27a7.62,7.62,0,0,0-1.08-.33,4.6,4.6,0,0,0-1-.13q-3,0-3,3.83a4.55,4.55,0,0,0,.73,2.78,2.54,2.54,0,0,0,2.17,1,6.67,6.67,0,0,0,2.52-.53v1.32A5.41,5.41,0,0,1,173.6,47.15Z"/><path class="cls-1" d="M184.15,47l-.3-1.4h-.07a4,4,0,0,1-1.47,1.25,4.47,4.47,0,0,1-1.83.33,3.29,3.29,0,0,1-2.29-.75,2.75,2.75,0,0,1-.83-2.15q0-3,4.77-3.12l1.67-.06v-.61a2.51,2.51,0,0,0-.5-1.71,2.05,2.05,0,0,0-1.6-.55,6.53,6.53,0,0,0-2.78.75l-.46-1.14a7.29,7.29,0,0,1,1.6-.62,6.78,6.78,0,0,1,1.73-.22,3.74,3.74,0,0,1,2.61.78,3.24,3.24,0,0,1,.85,2.5V47Zm-3.37-1a3,3,0,0,0,2.19-.76,2.82,2.82,0,0,0,.79-2.14v-.89l-1.49.06a5.42,5.42,0,0,0-2.56.56,1.64,1.64,0,0,0-.79,1.52,1.52,1.52,0,0,0,.49,1.23A2,2,0,0,0,180.78,45.92Z"/><path class="cls-1" d="M189.48,47H188V33h1.49Z"/><path class="cls-1" d="M196.19,43.57a3.52,3.52,0,0,1,.63-2.07,6.64,6.64,0,0,1,2.24-1.81,10.87,10.87,0,0,1-1-1.29,4.84,4.84,0,0,1-.44-.92,3.31,3.31,0,0,1-.16-1,2.6,2.6,0,0,1,.88-2.1,3.66,3.66,0,0,1,2.45-.75,3.29,3.29,0,0,1,2.29.75,2.64,2.64,0,0,1,.84,2.08,2.93,2.93,0,0,1-.61,1.78,7,7,0,0,1-2,1.65l3.65,3.51a4,4,0,0,0,.8-1.31,9.55,9.55,0,0,0,.51-1.64h1.51a8.66,8.66,0,0,1-1.84,3.9L208.57,47h-2.06l-1.66-1.6a6.35,6.35,0,0,1-4.6,1.78,4.33,4.33,0,0,1-3-.95A3.34,3.34,0,0,1,196.19,43.57Zm4.1,2.24a5,5,0,0,0,3.59-1.38L200,40.62a9.82,9.82,0,0,0-1.41,1,3,3,0,0,0-.61.86,2.64,2.64,0,0,0-.19,1,2.13,2.13,0,0,0,.69,1.67A2.71,2.71,0,0,0,200.29,45.81Zm-1.4-9.35a2.32,2.32,0,0,0,.33,1.18,7.15,7.15,0,0,0,1.1,1.35,5.7,5.7,0,0,0,1.61-1.24,2,2,0,0,0,.46-1.32,1.51,1.51,0,0,0-.46-1.13,1.75,1.75,0,0,0-1.24-.43,1.91,1.91,0,0,0-1.3.43A1.46,1.46,0,0,0,198.89,36.46Z"/><path class="cls-1" d="M221.84,47h-7.32V33.84h7.32V35.2h-5.79v4.23h5.44v1.35h-5.44v4.83h5.79Z"/><path class="cls-1" d="M230.93,47V40.61a2.54,2.54,0,0,0-.55-1.8,2.2,2.2,0,0,0-1.71-.59,2.87,2.87,0,0,0-2.27.83,4.29,4.29,0,0,0-.72,2.76V47h-1.49V37.13h1.22l.24,1.35h.07A3,3,0,0,1,227,37.35a4.11,4.11,0,0,1,1.84-.4,3.74,3.74,0,0,1,2.67.86,3.63,3.63,0,0,1,.9,2.74V47Z"/><path class="cls-1" d="M237.31,47l-3.74-9.84h1.6L237.29,43a25.15,25.15,0,0,1,.84,2.66h.07q.11-.48.63-2c.35-1,1.13-3.17,2.35-6.52h1.6L239.05,47Z"/><path class="cls-1" d="M243.91,34.46a1,1,0,0,1,.25-.75.86.86,0,0,1,.63-.23.89.89,0,0,1,.62.24,1.2,1.2,0,0,1,0,1.49.86.86,0,0,1-.62.25.84.84,0,0,1-.63-.25A1,1,0,0,1,243.91,34.46ZM245.52,47H244V37.13h1.49Z"/><path class="cls-1" d="M252.84,37a6,6,0,0,1,1.18.11l-.21,1.38a4.94,4.94,0,0,0-1.08-.13,2.62,2.62,0,0,0-2,1,3.55,3.55,0,0,0-.85,2.41V47h-1.49V37.13h1.23l.17,1.82h.08a4.25,4.25,0,0,1,1.32-1.48A2.93,2.93,0,0,1,252.84,37Z"/><path class="cls-1" d="M264,42a5.41,5.41,0,0,1-1.21,3.76,4.27,4.27,0,0,1-3.35,1.35,4.45,4.45,0,0,1-2.34-.62,4,4,0,0,1-1.58-1.78A6.18,6.18,0,0,1,255,42a5.45,5.45,0,0,1,1.2-3.75A4.29,4.29,0,0,1,259.52,37a4.19,4.19,0,0,1,3.29,1.37A5.43,5.43,0,0,1,264,42Zm-7.5,0a4.71,4.71,0,0,0,.76,2.88,3,3,0,0,0,4.44,0,4.64,4.64,0,0,0,.76-2.88,4.55,4.55,0,0,0-.76-2.85,2.66,2.66,0,0,0-2.24-1,2.63,2.63,0,0,0-2.21,1A4.59,4.59,0,0,0,256.52,42Z"/><path class="cls-1" d="M273,47V40.61a2.54,2.54,0,0,0-.55-1.8,2.2,2.2,0,0,0-1.71-.59,2.87,2.87,0,0,0-2.27.83,4.23,4.23,0,0,0-.71,2.76V47h-1.5V37.13h1.22l.24,1.35h.07a3.06,3.06,0,0,1,1.28-1.13A4.18,4.18,0,0,1,271,37a3.74,3.74,0,0,1,2.67.86,3.63,3.63,0,0,1,.9,2.74V47Z"/><path class="cls-1" d="M289.81,47v-6.4a2.67,2.67,0,0,0-.51-1.77,1.93,1.93,0,0,0-1.56-.58,2.52,2.52,0,0,0-2.06.8,3.81,3.81,0,0,0-.66,2.46V47h-1.49v-6.4a2.73,2.73,0,0,0-.5-1.77,2,2,0,0,0-1.58-.58,2.44,2.44,0,0,0-2.05.84,4.56,4.56,0,0,0-.65,2.75V47h-1.49V37.13h1.21l.25,1.35h.07A3,3,0,0,1,280,37.35a3.61,3.61,0,0,1,1.72-.4,2.91,2.91,0,0,1,3,1.67h.08a3.12,3.12,0,0,1,1.27-1.22A4,4,0,0,1,288,37a3.36,3.36,0,0,1,2.51.86,3.84,3.84,0,0,1,.83,2.74V47Z"/><path class="cls-1" d="M298.19,47.15a4.5,4.5,0,0,1-3.44-1.33,5.13,5.13,0,0,1-1.26-3.69,5.73,5.73,0,0,1,1.17-3.78,3.9,3.9,0,0,1,3.15-1.4,3.69,3.69,0,0,1,2.92,1.22,4.65,4.65,0,0,1,1.08,3.21v.94H295a3.86,3.86,0,0,0,.88,2.63,3,3,0,0,0,2.34.9,7.82,7.82,0,0,0,3.14-.67v1.33a7.91,7.91,0,0,1-1.5.49A8.18,8.18,0,0,1,298.19,47.15Zm-.4-8.95a2.45,2.45,0,0,0-1.89.77,3.56,3.56,0,0,0-.83,2.14h5.14a3.33,3.33,0,0,0-.62-2.16A2.22,2.22,0,0,0,297.79,38.2Z"/><path class="cls-1" d="M310.76,47V40.61a2.58,2.58,0,0,0-.55-1.8,2.23,2.23,0,0,0-1.72-.59,2.84,2.84,0,0,0-2.26.83,4.23,4.23,0,0,0-.72,2.76V47H304V37.13h1.21l.25,1.35h.07a3,3,0,0,1,1.28-1.13,4.14,4.14,0,0,1,1.84-.4,3.75,3.75,0,0,1,2.68.86,3.63,3.63,0,0,1,.9,2.74V47Z"/><path class="cls-1" d="M318.16,45.92a4.77,4.77,0,0,0,.76-.06,5.15,5.15,0,0,0,.58-.12v1.14a3,3,0,0,1-.71.2,5.39,5.39,0,0,1-.85.07c-1.9,0-2.85-1-2.85-3V38.29h-1.41v-.72l1.41-.62.62-2.1h.87v2.28h2.85v1.16h-2.85v5.79a2,2,0,0,0,.42,1.37A1.49,1.49,0,0,0,318.16,45.92Z"/><path class="cls-1" d="M327.19,47l-.3-1.4h-.07a4,4,0,0,1-1.47,1.25,4.39,4.39,0,0,1-1.82.33,3.32,3.32,0,0,1-2.3-.75,2.78,2.78,0,0,1-.83-2.15q0-3,4.77-3.12l1.67-.06v-.61a2.46,2.46,0,0,0-.5-1.71,2,2,0,0,0-1.59-.55A6.56,6.56,0,0,0,322,39l-.45-1.14a7,7,0,0,1,1.59-.62,6.92,6.92,0,0,1,1.74-.22,3.77,3.77,0,0,1,2.61.78,3.28,3.28,0,0,1,.85,2.5V47Zm-3.37-1a3,3,0,0,0,2.19-.76A2.82,2.82,0,0,0,326.8,43v-.89l-1.49.06a5.45,5.45,0,0,0-2.56.56,1.66,1.66,0,0,0-.79,1.52,1.55,1.55,0,0,0,.49,1.23A2.06,2.06,0,0,0,323.82,45.92Z"/><path class="cls-1" d="M332.53,47H331V33h1.5Z"/><path class="cls-1" d="M87.14,63.58V69H85.61V55.91h3.6a5.63,5.63,0,0,1,3.57.93,3.35,3.35,0,0,1,1.16,2.78,3.48,3.48,0,0,1-2.64,3.52L94.86,69h-1.8l-3.18-5.46Zm0-1.31h2.09a3.59,3.59,0,0,0,2.37-.64,2.41,2.41,0,0,0,.76-1.93,2.18,2.18,0,0,0-.77-1.87,4.1,4.1,0,0,0-2.47-.58h-2Z"/><path class="cls-1" d="M100.58,69.22a4.5,4.5,0,0,1-3.44-1.33,5.13,5.13,0,0,1-1.26-3.69,5.73,5.73,0,0,1,1.17-3.78A3.9,3.9,0,0,1,100.2,59a3.69,3.69,0,0,1,2.92,1.22,4.65,4.65,0,0,1,1.08,3.21v.94H97.42A3.86,3.86,0,0,0,98.3,67a3,3,0,0,0,2.34.9,7.82,7.82,0,0,0,3.14-.67v1.33a7.69,7.69,0,0,1-1.5.49A8.18,8.18,0,0,1,100.58,69.22Zm-.4-8.95a2.45,2.45,0,0,0-1.89.77,3.56,3.56,0,0,0-.83,2.14h5.14A3.33,3.33,0,0,0,102,61,2.22,2.22,0,0,0,100.18,60.27Z"/><path class="cls-1" d="M112.76,66.36a2.48,2.48,0,0,1-1,2.12,4.89,4.89,0,0,1-2.88.74,6.28,6.28,0,0,1-3-.62V67.22a7.45,7.45,0,0,0,1.52.57,6.76,6.76,0,0,0,1.57.2,3.49,3.49,0,0,0,1.79-.37,1.24,1.24,0,0,0,.63-1.14,1.23,1.23,0,0,0-.49-1,8.33,8.33,0,0,0-2-1,10.09,10.09,0,0,1-1.95-.89,2.54,2.54,0,0,1-.86-.87,2.23,2.23,0,0,1-.29-1.15,2.2,2.2,0,0,1,1-1.9,4.54,4.54,0,0,1,2.69-.7,7.84,7.84,0,0,1,3.1.65L112,60.88a7,7,0,0,0-2.68-.61,3.11,3.11,0,0,0-1.6.33,1,1,0,0,0-.54.92,1.15,1.15,0,0,0,.2.67,2.06,2.06,0,0,0,.66.53,13.67,13.67,0,0,0,1.72.73,6.39,6.39,0,0,1,2.37,1.28A2.27,2.27,0,0,1,112.76,66.36Z"/><path class="cls-1" d="M119,69.22a4.5,4.5,0,0,1-3.44-1.33,5.13,5.13,0,0,1-1.26-3.69,5.73,5.73,0,0,1,1.17-3.78,3.9,3.9,0,0,1,3.15-1.4,3.69,3.69,0,0,1,2.92,1.22,4.65,4.65,0,0,1,1.08,3.21v.94h-6.78a3.86,3.86,0,0,0,.88,2.63,3,3,0,0,0,2.34.9,7.82,7.82,0,0,0,3.14-.67v1.33a7.91,7.91,0,0,1-1.5.49A8.25,8.25,0,0,1,119,69.22Zm-.4-8.95a2.45,2.45,0,0,0-1.89.77,3.56,3.56,0,0,0-.83,2.14H121A3.27,3.27,0,0,0,120.4,61,2.19,2.19,0,0,0,118.61,60.27Z"/><path class="cls-1" d="M130.89,69l-.29-1.4h-.08a4.05,4.05,0,0,1-1.46,1.25,4.47,4.47,0,0,1-1.83.33,3.32,3.32,0,0,1-2.3-.75,2.78,2.78,0,0,1-.83-2.15q0-3,4.77-3.12l1.67-.06v-.61a2.46,2.46,0,0,0-.5-1.71,2,2,0,0,0-1.59-.55,6.49,6.49,0,0,0-2.78.75l-.46-1.14a7.2,7.2,0,0,1,1.59-.62,6.92,6.92,0,0,1,1.74-.22,3.77,3.77,0,0,1,2.61.78,3.29,3.29,0,0,1,.85,2.51V69ZM127.53,68a3,3,0,0,0,2.18-.76,2.83,2.83,0,0,0,.8-2.14V64.2l-1.49.06a5.5,5.5,0,0,0-2.57.56,1.66,1.66,0,0,0-.78,1.52,1.52,1.52,0,0,0,.49,1.23A2,2,0,0,0,127.53,68Z"/><path class="cls-1" d="M139.23,59a5.89,5.89,0,0,1,1.17.11l-.2,1.38a5.08,5.08,0,0,0-1.08-.13,2.59,2.59,0,0,0-2,1,3.5,3.5,0,0,0-.85,2.41V69h-1.49V59.2H136l.17,1.82h.07a4.45,4.45,0,0,1,1.32-1.48A2.94,2.94,0,0,1,139.23,59Z"/><path class="cls-1" d="M145.85,69.22a4.21,4.21,0,0,1-3.31-1.31,5.44,5.44,0,0,1-1.18-3.73,5.54,5.54,0,0,1,1.2-3.81A4.26,4.26,0,0,1,145.94,59a6.78,6.78,0,0,1,1.42.15,5.47,5.47,0,0,1,1.12.36L148,60.8a7.62,7.62,0,0,0-1.08-.33,4.6,4.6,0,0,0-1-.13q-3,0-3,3.83a4.53,4.53,0,0,0,.73,2.78,2.54,2.54,0,0,0,2.17,1,6.67,6.67,0,0,0,2.52-.53v1.32A5.34,5.34,0,0,1,145.85,69.22Z"/><path class="cls-1" d="M157.07,69V62.68a2.54,2.54,0,0,0-.55-1.8,2.19,2.19,0,0,0-1.71-.59,2.82,2.82,0,0,0-2.27.84,4.32,4.32,0,0,0-.71,2.77V69h-1.49v-14h1.49V59.3a10.84,10.84,0,0,1-.07,1.27h.09a3,3,0,0,1,1.25-1.12A4,4,0,0,1,155,59a3.8,3.8,0,0,1,2.71.86,3.61,3.61,0,0,1,.9,2.72V69Z"/><path class="cls-1" d="M171.74,62.16h4.46v6.39a13.9,13.9,0,0,1-2.12.5,15.38,15.38,0,0,1-2.49.17,6.07,6.07,0,0,1-4.65-1.77,7,7,0,0,1-1.66-5,7.61,7.61,0,0,1,.82-3.59,5.54,5.54,0,0,1,2.37-2.35,7.67,7.67,0,0,1,3.62-.81,9.78,9.78,0,0,1,3.91.77l-.59,1.34a8.75,8.75,0,0,0-3.42-.75,4.88,4.88,0,0,0-3.74,1.43,5.53,5.53,0,0,0-1.35,4,5.69,5.69,0,0,0,1.29,4A5,5,0,0,0,172,67.88a11.19,11.19,0,0,0,2.66-.31v-4h-2.93Z"/><path class="cls-1" d="M183.29,59a5.89,5.89,0,0,1,1.17.11l-.2,1.38a5.08,5.08,0,0,0-1.08-.13,2.59,2.59,0,0,0-2,1,3.5,3.5,0,0,0-.85,2.41V69H178.8V59.2H180L180.2,61h.07a4.35,4.35,0,0,1,1.32-1.48A2.94,2.94,0,0,1,183.29,59Z"/><path class="cls-1" d="M194.47,64.11a5.46,5.46,0,0,1-1.21,3.76,4.28,4.28,0,0,1-3.35,1.35,4.51,4.51,0,0,1-2.35-.62A4,4,0,0,1,186,66.82a6.18,6.18,0,0,1-.55-2.71,5.45,5.45,0,0,1,1.2-3.75A4.26,4.26,0,0,1,190,59a4.17,4.17,0,0,1,3.28,1.37A5.43,5.43,0,0,1,194.47,64.11Zm-7.5,0a4.71,4.71,0,0,0,.75,2.88,2.66,2.66,0,0,0,2.22,1,2.6,2.6,0,0,0,2.22-1,4.62,4.62,0,0,0,.76-2.88,4.55,4.55,0,0,0-.76-2.85,3,3,0,0,0-4.45,0A4.65,4.65,0,0,0,187,64.11Z"/><path class="cls-1" d="M198.15,59.2v6.38a2.54,2.54,0,0,0,.55,1.8,2.19,2.19,0,0,0,1.71.59,2.81,2.81,0,0,0,2.26-.84,4.23,4.23,0,0,0,.71-2.76V59.2h1.5V69h-1.23l-.22-1.32h-.08a3,3,0,0,1-1.27,1.12,4.38,4.38,0,0,1-1.86.38,3.78,3.78,0,0,1-2.69-.85,3.66,3.66,0,0,1-.89-2.73V59.2Z"/><path class="cls-1" d="M212.28,69.22a4.34,4.34,0,0,1-1.75-.35,3.26,3.26,0,0,1-1.33-1.09h-.11a13.52,13.52,0,0,1,.11,1.63v4h-1.5V59.2h1.22l.2,1.35h.08a3.41,3.41,0,0,1,1.33-1.17,4.09,4.09,0,0,1,1.75-.36,3.66,3.66,0,0,1,3,1.34,5.87,5.87,0,0,1,1.06,3.75,5.88,5.88,0,0,1-1.08,3.77A3.65,3.65,0,0,1,212.28,69.22Zm-.21-8.93a2.65,2.65,0,0,0-2.18.83,4.28,4.28,0,0,0-.69,2.66v.33a4.94,4.94,0,0,0,.69,3,2.61,2.61,0,0,0,2.21.89,2.3,2.3,0,0,0,2-1,4.85,4.85,0,0,0,.73-2.85,4.67,4.67,0,0,0-.73-2.82A2.36,2.36,0,0,0,212.07,60.29Z"/><path class="cls-1" d="M87.22,23.71H86.05V17.57H84v-1h5.37v1h-2.1Z"/><path class="cls-1" d="M95,23.71h-4V16.57h4v1H92.08V19.5h2.69v1H92.08v2.24H95Z"/><path class="cls-1" d="M102.25,23.71h-1.34l-1.79-2.92-1.8,2.92H96.07L98.44,20l-2.22-3.44h1.3l1.65,2.7,1.65-2.7h1.26L99.85,20Z"/><path class="cls-1" d="M108.14,23.71l-.71-2H104.7l-.7,2h-1.23l2.67-7.17h1.27l2.67,7.17Zm-1-3-.67-1.94c0-.13-.11-.34-.2-.62s-.15-.48-.18-.61a11.54,11.54,0,0,1-.39,1.31L105,20.72Z"/><path class="cls-1" d="M114.94,21.77a1.78,1.78,0,0,1-.69,1.49,2.94,2.94,0,0,1-1.9.55,4.51,4.51,0,0,1-2-.38v-1.1a5.54,5.54,0,0,0,1,.36,4.19,4.19,0,0,0,1,.13,1.66,1.66,0,0,0,1-.26.88.88,0,0,0,.33-.71.9.9,0,0,0-.3-.68,4.33,4.33,0,0,0-1.25-.66,3.3,3.3,0,0,1-1.38-.9,2,2,0,0,1-.4-1.22,1.69,1.69,0,0,1,.64-1.41,2.63,2.63,0,0,1,1.7-.51,5,5,0,0,1,2,.45l-.37.95a4.38,4.38,0,0,0-1.7-.4,1.34,1.34,0,0,0-.86.24.85.85,0,0,0-.29.66.89.89,0,0,0,.12.47,1.14,1.14,0,0,0,.38.38,7.08,7.08,0,0,0,1,.46,5.29,5.29,0,0,1,1.15.61,1.8,1.8,0,0,1,.54.64A2,2,0,0,1,114.94,21.77Z"/><path class="cls-1" d="M124.35,23.71l-.72-2h-2.72l-.7,2H119l2.67-7.17h1.27l2.67,7.17Zm-1-3-.67-1.94c0-.13-.12-.34-.21-.62s-.14-.48-.17-.61a11.54,11.54,0,0,1-.39,1.31l-.64,1.86Z"/><path class="cls-1" d="M126.56,21.82a2,2,0,0,1,.31-1.12,3.3,3.3,0,0,1,1.13-.94,4.43,4.43,0,0,1-.64-.92,1.87,1.87,0,0,1-.16-.77,1.39,1.39,0,0,1,.53-1.17,2.15,2.15,0,0,1,1.42-.43,2.08,2.08,0,0,1,1.36.41A1.41,1.41,0,0,1,131,18a1.67,1.67,0,0,1-.33,1,3.66,3.66,0,0,1-1.1.91l1.69,1.63a4.6,4.6,0,0,0,.66-1.53h1.18A5.43,5.43,0,0,1,132,22.29l1.47,1.42H132l-.73-.71a3.52,3.52,0,0,1-1.06.6,3.56,3.56,0,0,1-1.25.21,2.63,2.63,0,0,1-1.76-.54A1.77,1.77,0,0,1,126.56,21.82Zm2.46,1a2.34,2.34,0,0,0,1.53-.52l-1.87-1.84a2.46,2.46,0,0,0-.72.62,1.14,1.14,0,0,0-.19.66,1,1,0,0,0,.34.78A1.31,1.31,0,0,0,129,22.82Zm-.73-4.71a1.21,1.21,0,0,0,.16.58,3.14,3.14,0,0,0,.46.58,2.66,2.66,0,0,0,.77-.58,1,1,0,0,0,.23-.61.64.64,0,0,0-.22-.51.79.79,0,0,0-.56-.19.9.9,0,0,0-.61.2A.64.64,0,0,0,128.29,18.11Z"/><path class="cls-1" d="M138,23.71l-2.07-6h0c.05.88.08,1.71.08,2.49v3.47h-1.06V16.57h1.65l2,5.68h0l2-5.68h1.65v7.14h-1.12V20.18c0-.36,0-.82,0-1.39s0-.91,0-1h0l-2.14,5.95Z"/><path class="cls-1" d="M153.35,16.57v4.62a2.76,2.76,0,0,1-.33,1.38,2.32,2.32,0,0,1-1,.92,3.45,3.45,0,0,1-1.53.32,2.87,2.87,0,0,1-2.07-.71,2.55,2.55,0,0,1-.74-1.93v-4.6h1.18v4.52a1.77,1.77,0,0,0,.41,1.3,1.68,1.68,0,0,0,1.26.42c1.1,0,1.65-.58,1.65-1.73V16.57Z"/><path class="cls-1" d="M161.63,23.71H160.2L156.69,18h0l0,.32c.05.6.07,1.16.07,1.66v3.71h-1.06V16.57h1.42l3.5,5.66h0c0-.08,0-.35,0-.82s0-.84,0-1.1V16.57h1.07Z"/><path class="cls-1" d="M164,23.71V16.57h1.17v7.14Z"/><path class="cls-1" d="M171.63,16.57h1.21l-2.5,7.14h-1.23l-2.49-7.14h1.2L169.31,21a8.54,8.54,0,0,1,.25.82,6.17,6.17,0,0,1,.17.74,8.46,8.46,0,0,1,.2-.86q.13-.48.21-.72Z"/><path class="cls-1" d="M178.32,23.71h-4V16.57h4v1h-2.87V19.5h2.69v1h-2.69v2.24h2.87Z"/><path class="cls-1" d="M181.53,20.86v2.85h-1.16V16.57h2a3.29,3.29,0,0,1,2.05.52,1.85,1.85,0,0,1,.66,1.56,2,2,0,0,1-1.38,1.9l2,3.16h-1.33l-1.71-2.85Zm0-1h.81a1.84,1.84,0,0,0,1.18-.3,1.08,1.08,0,0,0,.37-.9,1,1,0,0,0-.39-.87,2.16,2.16,0,0,0-1.2-.26h-.77Z"/><path class="cls-1" d="M191.37,21.77a1.78,1.78,0,0,1-.69,1.49,2.91,2.91,0,0,1-1.89.55,4.58,4.58,0,0,1-2-.38v-1.1a6.08,6.08,0,0,0,1,.36,4.32,4.32,0,0,0,1,.13,1.67,1.67,0,0,0,1-.26.91.91,0,0,0,0-1.39,4.19,4.19,0,0,0-1.25-.66,3.19,3.19,0,0,1-1.37-.9,1.9,1.9,0,0,1-.4-1.22,1.71,1.71,0,0,1,.63-1.41,2.64,2.64,0,0,1,1.71-.51,5,5,0,0,1,2,.45l-.37.95a4.46,4.46,0,0,0-1.7-.4,1.32,1.32,0,0,0-.86.24.83.83,0,0,0-.3.66.89.89,0,0,0,.12.47,1.29,1.29,0,0,0,.39.38,7.43,7.43,0,0,0,1,.46,5.41,5.41,0,0,1,1.16.61,1.77,1.77,0,0,1,.53.64A1.86,1.86,0,0,1,191.37,21.77Z"/><path class="cls-1" d="M193.26,23.71V16.57h1.16v7.14Z"/><path class="cls-1" d="M199.27,23.71h-1.16V17.57H196v-1h5.36v1h-2.1Z"/><path class="cls-1" d="M205,19.83l1.69-3.26h1.27l-2.38,4.37v2.77h-1.17V21L202,16.57h1.27Z"/><path id="R_symbol" data-name="R symbol" class="cls-2" d="M71,68.63a1.08,1.08,0,1,1,1.07,1.07A1.07,1.07,0,0,1,71,68.63Zm1.89,0a.82.82,0,1,0-1.63,0,.82.82,0,1,0,1.63,0ZM71.66,68h.45c.29,0,.45.1.45.36a.31.31,0,0,1-.32.33l.33.53h-.23L72,68.71h-.13v.52h-.23Zm.23.52h.19c.14,0,.25,0,.25-.18s-.13-.16-.24-.16h-.2Z"/><g id="Block_aTm" data-name="Block aTm"><rect class="cls-2" x="15.52" y="15.7" width="53.58" height="54"/><polygon class="cls-3" points="61.98 37.19 58 37.19 57.77 37.19 57.67 37.4 54.78 43.41 51.89 37.4 51.79 37.19 51.56 37.19 47.71 37.19 47.35 37.19 47.35 37.56 47.35 39.61 47.35 39.97 47.71 39.97 48.37 39.97 48.37 48.57 47.66 48.57 47.29 48.57 47.29 48.94 47.29 50.99 47.29 51.35 47.66 51.35 51.98 51.35 52.34 51.35 52.34 50.99 52.34 48.94 52.34 48.57 51.98 48.57 51.23 48.57 51.23 42.47 54.45 49.12 54.78 49.8 55.12 49.12 58.38 42.45 58.38 48.57 57.66 48.57 57.3 48.57 57.3 48.94 57.3 50.99 57.3 51.35 57.66 51.35 61.98 51.35 62.35 51.35 62.35 50.99 62.35 48.94 62.35 48.57 61.98 48.57 61.24 48.57 61.24 39.97 61.98 39.97 62.35 39.97 62.35 39.61 62.35 37.56 62.35 37.19 61.98 37.19"/><path class="cls-3" d="M36.9,48.56H35.75L32,39.92h.72V37.14h-6v2.78h.83l-3.74,8.64H22.27v2.79h5.44V48.56h-.79l.62-1.43H32l.61,1.43h-.83v2.79h5.45V48.56Zm-6.07-4.21H28.74l1.05-2.42Z"/><polygon class="cls-3" points="57.41 26.39 27.11 26.39 26.69 26.39 26.69 26.81 26.69 34.91 26.69 35.32 27.11 35.32 32.34 35.32 32.76 35.32 32.76 34.91 32.76 31.9 39.22 31.9 39.22 53.23 36.22 53.23 35.8 53.23 35.8 53.65 35.8 58.88 35.8 59.3 36.22 59.3 48.3 59.3 48.72 59.3 48.72 58.88 48.72 53.65 48.72 53.23 48.3 53.23 45.3 53.23 45.3 31.9 51.72 31.9 51.72 34.87 51.72 35.28 52.14 35.28 57.41 35.28 57.83 35.28 57.83 34.87 57.83 26.81 57.83 26.39 57.41 26.39"/><polygon class="cls-4" points="46.19 55.72 47.47 54.4 47.47 58.02 46.19 56.8 46.19 55.72"/><polygon class="cls-4" points="44.06 54.5 42.78 55.76 42.78 29.38 44.06 30.66 44.06 54.5"/><polygon class="cls-4" points="29.25 28.92 27.94 27.64 55.94 27.64 54.28 28.92 29.25 28.92"/><polygon class="cls-4" points="56.62 34.11 55.34 32.89 55.34 29.63 56.62 28.32 56.62 34.11"/></g></g></svg>